<svg xmlns="http://www.w3.org/2000/svg" xmlns:xlink="http://www.w3.org/1999/xlink" xmlns:lucid="lucid" width="1760" height="1360"><g transform="translate(0 0)" lucid:page-tab-id="0_0"><path d="M733.3 200c0 33.14-35.82 60-80 60s-80-26.86-80-60 35.82-60 80-60 80 26.86 80 60z" stroke="#000" fill="#fff"/><use xlink:href="#a" transform="matrix(1,0,0,1,573.2993779869998,140) translate(22.17718518518518 64.94444444444444)"/><use xlink:href="#b" transform="matrix(1,0,0,1,573.2993779869998,140) translate(87.68335802469136 64.94444444444444)"/><path d="M680 860c0 33.14-35.82 60-80 60s-80-26.86-80-60 35.82-60 80-60 80 26.86 80 60z" stroke="#000" fill="#fff"/><use xlink:href="#c" transform="matrix(1,0,0,1,520,800) translate(28.708703703703705 48.16666666666667)"/><use xlink:href="#d" transform="matrix(1,0,0,1,520,800) translate(65.44944444444445 48.16666666666667)"/><use xlink:href="#e" transform="matrix(1,0,0,1,520,800) translate(19.444444444444436 64.16666666666667)"/><use xlink:href="#f" transform="matrix(1,0,0,1,520,800) translate(56.59259259259259 64.16666666666667)"/><use xlink:href="#g" transform="matrix(1,0,0,1,520,800) translate(113.96296296296296 64.16666666666667)"/><use xlink:href="#h" transform="matrix(1,0,0,1,520,800) translate(24.04203703703702 80.16666666666667)"/><use xlink:href="#i" transform="matrix(1,0,0,1,520,800) translate(65.93092592592592 80.16666666666667)"/><path d="M308.18 200c0 33.14-35.82 60-80 60s-80-26.86-80-60 35.82-60 80-60 80 26.86 80 60z" stroke="#000" fill="#fff"/><use xlink:href="#j" transform="matrix(1,0,0,1,148.17832716972464,140) translate(20.609283950617282 53.69444444444444)"/><use xlink:href="#k" transform="matrix(1,0,0,1,148.17832716972464,140) translate(104.30681481481481 53.69444444444444)"/><use xlink:href="#l" transform="matrix(1,0,0,1,148.17832716972464,140) translate(129.36854320987655 53.69444444444444)"/><use xlink:href="#m" transform="matrix(1,0,0,1,148.17832716972464,140) translate(44.65432098765432 72.36111111111111)"/><path d="M567.14 422.94c0 45-35.8 81.46-80 81.46-44.18 0-80-36.47-80-81.46 0-45 35.82-81.47 80-81.47 44.2 0 80 36.47 80 81.47z" stroke="#000" fill="#fff"/><use xlink:href="#n" transform="matrix(1,0,0,1,407.1448773985519,341.46827052468973) translate(16.742000000000004 66.69791666666667)"/><use xlink:href="#o" transform="matrix(1,0,0,1,407.1448773985519,341.46827052468973) translate(57.92718518518519 66.69791666666667)"/><use xlink:href="#p" transform="matrix(1,0,0,1,407.1448773985519,341.46827052468973) translate(73.48274074074074 66.69791666666667)"/><use xlink:href="#q" transform="matrix(1,0,0,1,407.1448773985519,341.46827052468973) translate(124.26051851851852 66.69791666666667)"/><use xlink:href="#r" transform="matrix(1,0,0,1,407.1448773985519,341.46827052468973) translate(19.666666666666664 82.69791666666667)"/><use xlink:href="#s" transform="matrix(1,0,0,1,407.1448773985519,341.46827052468973) translate(100.85185185185188 82.69791666666667)"/><use xlink:href="#t" transform="matrix(1,0,0,1,407.1448773985519,341.46827052468973) translate(59.40740740740741 98.69791666666667)"/><path d="M1500 200c0 33.14-35.82 60-80 60s-80-26.86-80-60 35.82-60 80-60 80 26.86 80 60z" stroke="#000" fill="#fff"/><use xlink:href="#u" transform="matrix(1,0,0,1,1340,140) translate(14.581506172839509 53.69444444444444)"/><use xlink:href="#v" transform="matrix(1,0,0,1,1340,140) translate(98.27903703703704 53.69444444444444)"/><use xlink:href="#w" transform="matrix(1,0,0,1,1340,140) translate(123.34076543209878 53.69444444444444)"/><use xlink:href="#x" transform="matrix(1,0,0,1,1340,140) translate(27.824074074074083 72.36111111111111)"/><path d="M1500 680c0 38.66-35.82 70-80 70s-80-31.34-80-70 35.82-70 80-70 80 31.34 80 70z" stroke="#000" fill="#fff"/><use xlink:href="#y" transform="matrix(1,0,0,1,1340,609.9999999999999) translate(42.93092592592592 56.19444444444444)"/><use xlink:href="#z" transform="matrix(1,0,0,1,1340,609.9999999999999) translate(86.05438271604939 56.19444444444444)"/><use xlink:href="#A" transform="matrix(1,0,0,1,1340,609.9999999999999) translate(40.31172839506173 74.86111111111111)"/><use xlink:href="#B" transform="matrix(1,0,0,1,1340,609.9999999999999) translate(26.273518518518507 93.52777777777779)"/><path d="M860 420c0 40.72-35.82 73.73-80 73.73s-80-33-80-73.73c0-40.72 35.82-73.73 80-73.73s80 33 80 73.73z" stroke="#000" fill="#fff"/><use xlink:href="#C" transform="matrix(1,0,0,1,700,346.2658647376647) translate(12.047555555555546 67.94444444444444)"/><use xlink:href="#D" transform="matrix(1,0,0,1,700,346.2658647376647) translate(59.492 67.94444444444444)"/><use xlink:href="#E" transform="matrix(1,0,0,1,700,346.2658647376647) translate(94.83767901234567 67.94444444444444)"/><use xlink:href="#F" transform="matrix(1,0,0,1,700,346.2658647376647) translate(52.54012345679013 86.61111111111111)"/><path d="M308.18 673.73c0 33.14-35.82 60-80 60s-80-26.86-80-60c0-33.13 35.82-60 80-60s80 26.87 80 60z" stroke="#000" fill="#fff"/><use xlink:href="#y" transform="matrix(1,0,0,1,148.17832716972464,613.7341352623353) translate(42.93092592592592 46.19444444444444)"/><use xlink:href="#z" transform="matrix(1,0,0,1,148.17832716972464,613.7341352623353) translate(86.05438271604939 46.19444444444444)"/><use xlink:href="#A" transform="matrix(1,0,0,1,148.17832716972464,613.7341352623353) translate(40.31172839506173 64.86111111111111)"/><use xlink:href="#B" transform="matrix(1,0,0,1,148.17832716972464,613.7341352623353) translate(26.273518518518507 83.52777777777779)"/><path d="M1140 673.73c0 40.73-35.82 73.74-80 73.74s-80-33-80-73.74c0-40.72 35.82-73.73 80-73.73s80 33 80 73.73z" stroke="#000" fill="#fff"/><use xlink:href="#G" transform="matrix(1,0,0,1,980,600) translate(51.523518518518514 43.04166666666667)"/><use xlink:href="#g" transform="matrix(1,0,0,1,980,600) translate(81.89388888888888 43.04166666666667)"/><use xlink:href="#H" transform="matrix(1,0,0,1,980,600) translate(14.930925925925903 59.04166666666667)"/><use xlink:href="#I" transform="matrix(1,0,0,1,980,600) translate(109.56055555555555 59.04166666666667)"/><use xlink:href="#J" transform="matrix(1,0,0,1,980,600) translate(42.07407407407407 75.04166666666667)"/><use xlink:href="#K" transform="matrix(1,0,0,1,980,600) translate(79.74074074074073 75.04166666666667)"/><use xlink:href="#L" transform="matrix(1,0,0,1,980,600) translate(27.27777777777777 91.04166666666667)"/><use xlink:href="#M" transform="matrix(1,0,0,1,980,600) translate(114.24074074074076 91.04166666666667)"/><use xlink:href="#i" transform="matrix(1,0,0,1,980,600) translate(44.98648148148147 107.04166666666667)"/><path d="M1650.72 479.56l-149.98-279.12M1650.7 479.55l1.67 3.1" stroke="#333" fill="none"/><path d="M1501.18 200.22l-.7.37.02-.6v-.4l-.03-.7z" fill="#333"/><path d="M1650.6 480.36l-158.24 167.78M1650.6 480.37l2.4-2.55" stroke="#333" fill="none"/><path d="M1492.73 648.47l-.44.48-.55-.9.26-.26z" fill="#333"/><path d="M1140 422.94c0 33.13-35.82 60-80 60s-80-26.87-80-60c0-33.14 35.82-60 80-60s80 26.86 80 60z" stroke="#000" fill="#fff"/><use xlink:href="#N" transform="matrix(1,0,0,1,980,362.93654104937957) translate(54.06607407407408 64.94444444444444)"/><path d="M1140 860c0 33.14-35.82 60-80 60s-80-26.86-80-60 35.82-60 80-60 80 26.86 80 60z" stroke="#000" fill="#fff"/><use xlink:href="#O" transform="matrix(1,0,0,1,980,800) translate(39.14632098765432 53.69444444444444)"/><use xlink:href="#P" transform="matrix(1,0,0,1,980,800) translate(74.57841975308642 53.69444444444444)"/><use xlink:href="#Q" transform="matrix(1,0,0,1,980,800) translate(41.50000000000001 72.36111111111111)"/><path d="M1500 420c0 33.14-35.82 60-80 60s-80-26.86-80-60 35.82-60 80-60 80 26.86 80 60z" stroke="#000" fill="#fff"/><use xlink:href="#R" transform="matrix(1,0,0,1,1340,360) translate(30.011172839506152 34.94444444444444)"/><use xlink:href="#S" transform="matrix(1,0,0,1,1340,360) translate(106.7087037037037 34.94444444444444)"/><use xlink:href="#T" transform="matrix(1,0,0,1,1340,360) translate(31.432098765432094 53.611111111111114)"/><use xlink:href="#U" transform="matrix(1,0,0,1,1340,360) translate(95.81481481481482 53.611111111111114)"/><use xlink:href="#V" transform="matrix(1,0,0,1,1340,360) translate(22.336419753086425 72.27777777777779)"/><use xlink:href="#W" transform="matrix(1,0,0,1,1340,360) translate(128.1574074074074 72.27777777777779)"/><use xlink:href="#X" transform="matrix(1,0,0,1,1340,360) translate(52.41549382716048 90.94444444444446)"/><path d="M1650.52 479.75l-163.22-93.17M1650.5 479.75l3.06 1.74" stroke="#333" fill="none"/><path d="M1487.55 386.15l-.33.6-1.4-1.6z" fill="#333"/><path d="M82.25 432.25c0 6.77-5.48 12.25-12.25 12.25s-12.25-5.48-12.25-12.25S63.23 420 70 420s12.25 5.48 12.25 12.25z" stroke="#333" fill="#fff"/><path d="M70 444.5v29.3c0 2.76 1.36 6.78 3.04 8.97L100 518m-30-39.2L40 518m0-61.25h60" stroke="#333" fill="none"/><path d="M40 425c0-2.76 2.24-5 5-5h50c2.76 0 5 2.24 5 5v110c0 2.76-2.24 5-5 5H45c-2.76 0-5-2.24-5-5z" fill="none"/><use xlink:href="#Y" transform="matrix(1,0,0,1,-40,518) translate(80.13517901234567 24.444444444444446)"/><path d="M1664.75 432.25c0 6.77-5.48 12.25-12.25 12.25s-12.25-5.48-12.25-12.25 5.48-12.25 12.25-12.25 12.25 5.48 12.25 12.25z" stroke="#333" fill="#fff"/><path d="M1652.5 444.5v29.3c0 2.76 1.36 6.78 3.04 8.97L1682.5 518m-30-39.2l-30 39.2m0-61.25h60" stroke="#333" fill="none"/><path d="M1622.5 425c0-2.76 2.24-5 5-5h50c2.76 0 5 2.24 5 5v110c0 2.76-2.24 5-5 5h-50c-2.76 0-5-2.24-5-5z" fill="none"/><use xlink:href="#Z" transform="matrix(1,0,0,1,1542.5,518) translate(64.64443827160494 24.444444444444446)"/><path d="M120 45c0-2.76 2.24-5 5-5h1390c2.76 0 5 2.24 5 5v930c0 2.76-2.24 5-5 5H125c-2.76 0-5-2.24-5-5z" stroke="#333" fill-opacity="0"/><path d="M70 479.6l157.9-218.7M70 479.58l-2.04 2.85" stroke="#333" fill="none"/><path d="M228.17 260.5h.63l-.52.7-.8-.58.1-.14z" fill="#333"/><path d="M309.18 200h247.24" stroke="#000" fill="none"/><path d="M309.2 200.5h-.54l.02-.5v-.5h.5z"/><path d="M571.18 200l-14.26 4.64v-9.28z" stroke="#000"/><path d="M400 145c0-2.76 2.24-5 5-5h103.3c2.76 0 5 2.24 5 5v30c0 2.76-2.24 5-5 5H405c-2.76 0-5-2.24-5-5z" fill="#fff"/><use xlink:href="#aa" transform="matrix(1,0,0,1,400,140) translate(14.149438271604938 22.444444444444446)"/><path d="M69.9 480.46l77.6 192.8M69.9 480.48l-1.3-3.26" stroke="#333" fill="none"/><path d="M147.68 673.73v.4l.04 1.05-.7-1.73.68-.28z" fill="#333"/><path d="M1339.15 679.65l-206.1-206.1" stroke="#333" fill="none"/><path d="M1339.52 679.3l-.02.7v.73l-.72-.74.7-.72z" fill="#333"/><path d="M1122.6 463.1l13.38 6.82-6.56 6.56z" stroke="#333" fill="#333"/><path d="M1160 385c0-2.76 2.24-5 5-5h150c2.76 0 5 2.24 5 5v30c0 2.76-2.24 5-5 5h-150c-2.76 0-5-2.24-5-5z" fill="#fff"/><use xlink:href="#aa" transform="matrix(1,0,0,1,1160,380) translate(37.149438271604936 22.444444444444446)"/><path d="M309.18 673.73h653.94" fill="none"/><path d="M309.18 673.73h4.95m4.96 0h9.9m4.95 0h9.9m4.96 0h9.92m4.95 0h9.9m4.97 0h9.9m4.96 0h9.9m4.96 0h9.9m4.96 0h9.9m4.96 0h9.9m4.97 0h9.9m4.96 0h9.92m4.95 0h9.9m4.96 0h9.9m4.97 0h9.9m4.96 0h9.9m4.96 0h9.9m4.96 0h9.9m4.96 0h9.9m4.97 0h9.9m4.97 0h9.9m4.96 0h9.9m4.96 0h9.9m4.96 0h9.9m4.96 0h9.9m4.96 0h9.9m4.96 0h9.9m4.96 0h9.9m4.97 0h9.9m4.96 0h9.9m4.96 0h9.9m4.95 0h9.9m4.97 0h9.9m4.96 0h9.9m4.96 0h9.9m4.96 0h9.9m4.96 0h9.9m4.97 0h9.9m4.96 0h9.9m4.95 0h9.9m4.96 0h9.92m4.96 0h9.9m4.96 0h9.9m4.96 0h9.9m4.96 0h4.96" stroke="#333" fill="none"/><path d="M309.2 674.23h-.54l.02-.5v-.5h.5z" fill="#333"/><path d="M977.88 673.73l-14.26 4.64v-9.27z" stroke="#333" fill="#333"/><path d="M308.68 674.23V860h194.44" fill="none"/><path d="M308.68 674.23v5.07m0 5.07v10.14m0 5.08v10.14m0 5.07v10.13m0 5.07v10.14m0 5.07v10.14m0 5.07v10.15m0 5.07v10.14m0 5.07v10.14m0 5.07v10.14m0 5.07v10.13m0 5.07v10.14m0 5.06V860h1.8m5.07 0h10.14m5.06 0h10.14m5.07 0h10.13m5.07 0h10.14m5.08 0h10.14m5.07 0h10.13m5.07 0h10.14m5.07 0h10.14m5.07 0h10.15m5.07 0h10.14m5.07 0h10.14m5.07 0h10.14m5.07 0h5.07" stroke="#333" fill="none"/><path d="M309.18 674.25h-.52l.02-.5v-.4l-.1-2.62h.6z" fill="#333"/><path d="M517.88 860l-14.26 4.64v-9.28z" stroke="#333" fill="#333"/><path d="M560 633.34c0-2.77 2.24-5 5-5h130c2.76 0 5 2.23 5 5v30c0 2.76-2.24 5-5 5H565c-2.76 0-5-2.24-5-5z" fill="#fff"/><use xlink:href="#ab" transform="matrix(1,0,0,1,560,628.3353381558575) translate(24.535240740740733 22.444444444444446)"/><path d="M340 805c0-2.76 2.24-5 5-5h130c2.76 0 5 2.24 5 5v30c0 2.76-2.24 5-5 5H345c-2.76 0-5-2.24-5-5z" fill="#fff"/><use xlink:href="#ab" transform="matrix(1,0,0,1,340,800) translate(24.535240740740733 22.444444444444446)"/><path d="M1339 679.98l-182.12-5.73" fill="none"/><path d="M1339 679.98l-5.06-.16m-5.06-.15l-10.12-.32m-5.05-.16l-10.1-.33m-5.07-.16l-10.12-.3m-5.05-.17l-10.12-.32m-5.06-.15l-10.1-.3m-5.07-.17l-10.12-.32m-5.06-.16l-10.12-.32m-5.06-.16l-10.12-.32m-5.05-.16l-10.12-.32m-5.06-.16l-10.13-.3m-5.06-.17l-10.1-.33m-5.07-.16l-5.05-.15" stroke="#333" fill="none"/><path d="M1339.52 679.5l-.02.5v.5l-.53-.02.03-1z" fill="#333"/><path d="M1142.12 673.8l14.4-4.2-.3 9.27z" stroke="#333" fill="#333"/><path d="M1240 525c0-2.76 2.24-5 5-5h150c2.76 0 5 2.24 5 5v30c0 2.76-2.24 5-5 5h-150c-2.76 0-5-2.24-5-5z" fill="#fff"/><g><use xlink:href="#aa" transform="matrix(1,0,0,1,1240,520) translate(37.149438271604936 22.444444444444446)"/></g><path d="M1420 751v109h-263.12" fill="none"/><path d="M1420 751v4.96m0 4.96v9.93m0 4.96v9.93m0 4.96v9.92m0 4.96v9.92m0 4.96v9.92m0 4.97v9.92m0 4.96V860h-.15m-4.97 0h-9.92m-4.96 0h-9.92m-4.96 0h-9.93m-4.97 0h-9.92m-4.95 0h-9.93m-4.96 0h-9.92m-4.96 0h-9.93m-4.96 0h-9.93m-4.96 0h-9.92m-4.96 0H1271m-4.96 0h-9.93m-4.95 0h-9.92m-4.96 0h-9.92m-4.97 0h-9.92m-4.96 0h-9.92m-4.97 0h-9.9m-4.97 0h-9.92m-4.95 0h-4.97" stroke="#333" fill="none"/><path d="M1420 750.5h.5v.5h-1v-.52z" fill="#333"/><path d="M1142.12 860l14.26-4.64v9.28z" stroke="#333" fill="#333"/><path d="M1140 805c0-2.76 2.24-5 5-5h150c2.76 0 5 2.24 5 5v30c0 2.76-2.24 5-5 5h-150c-2.76 0-5-2.24-5-5z" fill="#fff"/><g><use xlink:href="#ab" transform="matrix(1,0,0,1,1140,800) translate(34.53524074074073 22.444444444444446)"/></g><path d="M1339 420l-182.12 2.7" stroke="#333" fill="none"/><path d="M1339.5 420v.5h-.5l-.02-1h.54z" fill="#333"/><path d="M1142.12 422.9l14.2-4.83.13 9.27z" stroke="#333" fill="#333"/><path d="M567.14 365c0-2.76 2.24-5 5-5h115.72c2.76 0 5 2.24 5 5v30c0 2.76-2.24 5-5 5H572.14c-2.76 0-5-2.24-5-5z" fill="#fff"/><g><use xlink:href="#aa" transform="matrix(1,0,0,1,567.1448773985519,360) translate(20.149438271604936 22.444444444444446)"/></g><path d="M861 420l102.12 2.53" stroke="#333" fill="none"/><path d="M861.03 419.5l-.03 1h-.52l.02-.5v-.5z" fill="#333"/><path d="M977.88 422.9l-14.37 4.28.24-9.27z" stroke="#333" fill="#333"/><path d="M288.76 422.94c0 33.13-31.47 60-70.3 60-38.8 0-70.28-26.87-70.28-60 0-33.14 31.47-60 70.3-60 38.8 0 70.28 26.86 70.28 60z" stroke="#333" fill="#fff"/><g><use xlink:href="#ac" transform="matrix(1,0,0,1,148.17832716972464,362.93654104937957) translate(25.429999999999993 51.9)"/><use xlink:href="#ad" transform="matrix(1,0,0,1,148.17832716972464,362.93654104937957) translate(104.58000000000001 51.9)"/><use xlink:href="#ae" transform="matrix(1,0,0,1,148.17832716972464,362.93654104937957) translate(22.729999999999997 73.5)"/></g><path d="M71.34 479.7l75.94-56.47M71.35 479.7l-2.82 2.1" stroke="#333" fill="none"/><path d="M147.68 422.93v.63l-.1.08-.6-.8.72-.54z" fill="#333"/><path d="M568.14 422.93l114.98-2.57" stroke="#333" fill="none"/><path d="M568.17 423.42l-.54.02.02-.5v-.5h.5z" fill="#333"/><path d="M697.88 420.04L683.72 425l-.2-9.28z" stroke="#333" fill="#333"/><path d="M289.76 422.94h100.5" stroke="#333" fill="none"/><path d="M289.78 423.44h-.53v-1h.53z" fill="#333"/><path d="M405.03 422.94l-14.27 4.63v-9.27z" stroke="#333" fill="#333"/><path d="M979.5 673.73" stroke="#333" fill="none"/><path fill="#333"/><path d="M979.5 675.35l4.64 14.27h-9.28z" stroke="#333" fill="#333"/><path d="M400 545c0-2.76 2.24-5 5-5h150c2.76 0 5 2.24 5 5v30c0 2.76-2.24 5-5 5H405c-2.76 0-5-2.24-5-5z" fill="#fff"/><g><use xlink:href="#aa" transform="matrix(1,0,0,1,400,540) translate(37.149438271604936 22.444444444444446)"/></g><path d="M1160 633.34c0-2.77 2.24-5 5-5h110c2.76 0 5 2.23 5 5v30c0 2.76-2.24 5-5 5h-110c-2.76 0-5-2.24-5-5z" fill="#fff"/><g><use xlink:href="#ab" transform="matrix(1,0,0,1,1160,628.3353381558575) translate(14.535240740740734 22.444444444444446)"/></g><path d="M309.16 673.6l684.17-199.26" stroke="#333" fill="none"/><path d="M309.3 674.07l-.64.2.02-.53v-.52l.35-.1z" fill="#333"/><path d="M1007.5 470.22l-12.4 8.44-2.6-8.9z" stroke="#333" fill="#333"/><path d="M859.42 365c0-2.76 2.24-5 5-5h110c2.76 0 5 2.24 5 5v30c0 2.76-2.24 5-5 5h-110c-2.76 0-5-2.24-5-5z" fill="#fff"/><g><use xlink:href="#aa" transform="matrix(1,0,0,1,859.4215741156092,360) translate(17.149438271604936 22.444444444444446)"/></g><path d="M287.14 365c0-2.76 2.24-5 5-5h110c2.77 0 5 2.24 5 5v30c0 2.76-2.23 5-5 5h-110c-2.76 0-5-2.24-5-5z" fill="#fff"/><g><use xlink:href="#aa" transform="matrix(1,0,0,1,287.1448773985519,360) translate(17.149438271604936 22.444444444444446)"/></g><defs><path d="M212-179c-10-28-35-45-73-45-59 0-87 40-87 99 0 60 29 101 89 101 43 0 62-24 78-52l27 14C228-24 195 4 139 4 59 4 22-46 18-125c-6-104 99-153 187-111 19 9 31 26 39 46" id="af"/><path d="M140-251c81 0 123 46 123 126C263-46 219 4 140 4 59 4 17-45 17-125s42-126 123-126zm0 227c63 0 89-41 89-101s-29-99-89-99c-61 0-89 39-89 99S79-25 140-24" id="ag"/><path d="M63-220v92h138v28H63V0H30v-248h175v28H63" id="ah"/><path d="M33 0v-248h34V0H33" id="ai"/><path d="M233-177c-1 41-23 64-60 70L243 0h-38l-65-103H63V0H30v-248c88 3 205-21 203 71zM63-129c60-2 137 13 137-47 0-61-80-42-137-45v92" id="aj"/><path d="M240 0l2-218c-23 76-54 145-80 218h-23L58-218 59 0H30v-248h44l77 211c21-75 51-140 76-211h43V0h-30" id="ak"/><g id="a"><use transform="matrix(0.04320987654320988,0,0,0.04320987654320988,0,0)" xlink:href="#af"/><use transform="matrix(0.04320987654320988,0,0,0.04320987654320988,11.19135802469136,0)" xlink:href="#ag"/><use transform="matrix(0.04320987654320988,0,0,0.04320987654320988,23.290123456790127,0)" xlink:href="#ah"/><use transform="matrix(0.04320987654320988,0,0,0.04320987654320988,32.75308641975309,0)" xlink:href="#ai"/><use transform="matrix(0.04320987654320988,0,0,0.04320987654320988,37.074074074074076,0)" xlink:href="#aj"/><use transform="matrix(0.04320987654320988,0,0,0.04320987654320988,48.26543209876544,0)" xlink:href="#ak"/></g><path d="M30 0v-248h187v28H63v79h144v27H63v87h162V0H30" id="al"/><path d="M205 0l-28-72H64L36 0H1l101-248h38L239 0h-34zm-38-99l-47-123c-12 45-31 82-46 123h93" id="am"/><path d="M30 0v-248h33v221h125V0H30" id="an"/><g id="b"><use transform="matrix(0.04320987654320988,0,0,0.04320987654320988,0,0)" xlink:href="#al"/><use transform="matrix(0.04320987654320988,0,0,0.04320987654320988,10.370370370370372,0)" xlink:href="#ak"/><use transform="matrix(0.04320987654320988,0,0,0.04320987654320988,23.290123456790127,0)" xlink:href="#am"/><use transform="matrix(0.04320987654320988,0,0,0.04320987654320988,33.6604938271605,0)" xlink:href="#ai"/><use transform="matrix(0.04320987654320988,0,0,0.04320987654320988,37.98148148148149,0)" xlink:href="#an"/></g><path d="M137 0h-34L2-248h35l83 218 83-218h36" id="ao"/><path d="M185-189c-5-48-123-54-124 2 14 75 158 14 163 119 3 78-121 87-175 55-17-10-28-26-33-46l33-7c5 56 141 63 141-1 0-78-155-14-162-118-5-82 145-84 179-34 5 7 8 16 11 25" id="ap"/><path d="M127-220V0H93v-220H8v-28h204v28h-85" id="aq"/><g id="c"><use transform="matrix(0.03703703703703704,0,0,0.03703703703703704,0,0)" xlink:href="#ao"/><use transform="matrix(0.03703703703703704,0,0,0.03703703703703704,8.88888888888889,0)" xlink:href="#ai"/><use transform="matrix(0.03703703703703704,0,0,0.03703703703703704,12.592592592592593,0)" xlink:href="#ap"/><use transform="matrix(0.03703703703703704,0,0,0.03703703703703704,21.48148148148148,0)" xlink:href="#ai"/><use transform="matrix(0.03703703703703704,0,0,0.03703703703703704,25.185185185185183,0)" xlink:href="#aq"/></g><path d="M197 0v-115H63V0H30v-248h33v105h134v-105h34V0h-34" id="ar"/><g id="d"><use transform="matrix(0.03703703703703704,0,0,0.03703703703703704,0,0)" xlink:href="#ao"/><use transform="matrix(0.03703703703703704,0,0,0.03703703703703704,8.88888888888889,0)" xlink:href="#al"/><use transform="matrix(0.03703703703703704,0,0,0.03703703703703704,17.77777777777778,0)" xlink:href="#ar"/><use transform="matrix(0.03703703703703704,0,0,0.03703703703703704,27.370370370370374,0)" xlink:href="#ai"/><use transform="matrix(0.03703703703703704,0,0,0.03703703703703704,31.07407407407408,0)" xlink:href="#af"/><use transform="matrix(0.03703703703703704,0,0,0.03703703703703704,40.66666666666667,0)" xlink:href="#an"/><use transform="matrix(0.03703703703703704,0,0,0.03703703703703704,48.07407407407407,0)" xlink:href="#al"/><use transform="matrix(0.03703703703703704,0,0,0.03703703703703704,56.96296296296296,0)" xlink:href="#ap"/></g><g id="e"><use transform="matrix(0.03703703703703704,0,0,0.03703703703703704,0,0)" xlink:href="#aq"/><use transform="matrix(0.03703703703703704,0,0,0.03703703703703704,8.111111111111112,0)" xlink:href="#ar"/><use transform="matrix(0.03703703703703704,0,0,0.03703703703703704,17.703703703703706,0)" xlink:href="#am"/><use transform="matrix(0.03703703703703704,0,0,0.03703703703703704,25.592592592592595,0)" xlink:href="#aq"/></g><g id="f"><use transform="matrix(0.03703703703703704,0,0,0.03703703703703704,0,0)" xlink:href="#af"/><use transform="matrix(0.03703703703703704,0,0,0.03703703703703704,9.592592592592593,0)" xlink:href="#ag"/><use transform="matrix(0.03703703703703704,0,0,0.03703703703703704,19.962962962962965,0)" xlink:href="#ak"/><use transform="matrix(0.03703703703703704,0,0,0.03703703703703704,31.03703703703704,0)" xlink:href="#ak"/><use transform="matrix(0.03703703703703704,0,0,0.03703703703703704,42.111111111111114,0)" xlink:href="#ai"/><use transform="matrix(0.03703703703703704,0,0,0.03703703703703704,45.814814814814824,0)" xlink:href="#aq"/></g><g id="g"><use transform="matrix(0.03703703703703704,0,0,0.03703703703703704,0,0)" xlink:href="#aq"/><use transform="matrix(0.03703703703703704,0,0,0.03703703703703704,8.111111111111112,0)" xlink:href="#ar"/><use transform="matrix(0.03703703703703704,0,0,0.03703703703703704,17.703703703703706,0)" xlink:href="#al"/></g><g id="h"><use transform="matrix(0.03703703703703704,0,0,0.03703703703703704,0,0)" xlink:href="#ak"/><use transform="matrix(0.03703703703703704,0,0,0.03703703703703704,11.074074074074076,0)" xlink:href="#ag"/><use transform="matrix(0.03703703703703704,0,0,0.03703703703703704,21.44444444444445,0)" xlink:href="#ap"/><use transform="matrix(0.03703703703703704,0,0,0.03703703703703704,30.333333333333336,0)" xlink:href="#aq"/></g><path d="M190 0L58-211 59 0H30v-248h39L202-35l-2-213h31V0h-41" id="as"/><g id="i"><use transform="matrix(0.03703703703703704,0,0,0.03703703703703704,0,0)" xlink:href="#ao"/><use transform="matrix(0.03703703703703704,0,0,0.03703703703703704,8.88888888888889,0)" xlink:href="#ai"/><use transform="matrix(0.03703703703703704,0,0,0.03703703703703704,12.592592592592593,0)" xlink:href="#ag"/><use transform="matrix(0.03703703703703704,0,0,0.03703703703703704,22.962962962962965,0)" xlink:href="#an"/><use transform="matrix(0.03703703703703704,0,0,0.03703703703703704,30.370370370370374,0)" xlink:href="#am"/><use transform="matrix(0.03703703703703704,0,0,0.03703703703703704,38.25925925925927,0)" xlink:href="#aq"/><use transform="matrix(0.03703703703703704,0,0,0.03703703703703704,46.37037037037039,0)" xlink:href="#ai"/><use transform="matrix(0.03703703703703704,0,0,0.03703703703703704,50.07407407407408,0)" xlink:href="#ag"/><use transform="matrix(0.03703703703703704,0,0,0.03703703703703704,60.444444444444464,0)" xlink:href="#as"/></g><path d="M143 4C61 4 22-44 18-125c-5-107 100-154 193-111 17 8 29 25 37 43l-32 9c-13-25-37-40-76-40-61 0-88 39-88 99 0 61 29 100 91 101 35 0 62-11 79-27v-45h-74v-28h105v86C228-13 192 4 143 4" id="at"/><g id="j"><use transform="matrix(0.04320987654320988,0,0,0.04320987654320988,0,0)" xlink:href="#aj"/><use transform="matrix(0.04320987654320988,0,0,0.04320987654320988,11.19135802469136,0)" xlink:href="#al"/><use transform="matrix(0.04320987654320988,0,0,0.04320987654320988,21.56172839506173,0)" xlink:href="#at"/><use transform="matrix(0.04320987654320988,0,0,0.04320987654320988,33.660493827160494,0)" xlink:href="#ai"/><use transform="matrix(0.04320987654320988,0,0,0.04320987654320988,37.98148148148148,0)" xlink:href="#ap"/><use transform="matrix(0.04320987654320988,0,0,0.04320987654320988,48.351851851851855,0)" xlink:href="#aq"/><use transform="matrix(0.04320987654320988,0,0,0.04320987654320988,57.814814814814824,0)" xlink:href="#al"/><use transform="matrix(0.04320987654320988,0,0,0.04320987654320988,68.18518518518519,0)" xlink:href="#aj"/></g><g id="k"><use transform="matrix(0.04320987654320988,0,0,0.04320987654320988,0,0)" xlink:href="#am"/><use transform="matrix(0.04320987654320988,0,0,0.04320987654320988,10.370370370370372,0)" xlink:href="#ap"/></g><use transform="matrix(0.04320987654320988,0,0,0.04320987654320988,0,0)" xlink:href="#am" id="l"/><path d="M209 0H11v-25l151-195H24v-28h176v25L50-27h159V0" id="au"/><g id="m"><use transform="matrix(0.04320987654320988,0,0,0.04320987654320988,0,0)" xlink:href="#af"/><use transform="matrix(0.04320987654320988,0,0,0.04320987654320988,11.19135802469136,0)" xlink:href="#ai"/><use transform="matrix(0.04320987654320988,0,0,0.04320987654320988,15.512345679012347,0)" xlink:href="#aq"/><use transform="matrix(0.04320987654320988,0,0,0.04320987654320988,24.97530864197531,0)" xlink:href="#ai"/><use transform="matrix(0.04320987654320988,0,0,0.04320987654320988,29.296296296296298,0)" xlink:href="#au"/><use transform="matrix(0.04320987654320988,0,0,0.04320987654320988,38.75925925925926,0)" xlink:href="#al"/><use transform="matrix(0.04320987654320988,0,0,0.04320987654320988,49.12962962962963,0)" xlink:href="#as"/><use transform="matrix(0.04320987654320988,0,0,0.04320987654320988,60.320987654320994,0)" xlink:href="#ap"/></g><path d="M194 0L95-120 63-95V0H30v-248h33v124l119-124h40L117-140 236 0h-42" id="av"/><g id="n"><use transform="matrix(0.03703703703703704,0,0,0.03703703703703704,0,0)" xlink:href="#aq"/><use transform="matrix(0.03703703703703704,0,0,0.03703703703703704,7.1111111111111125,0)" xlink:href="#am"/><use transform="matrix(0.03703703703703704,0,0,0.03703703703703704,16,0)" xlink:href="#av"/><use transform="matrix(0.03703703703703704,0,0,0.03703703703703704,24.88888888888889,0)" xlink:href="#al"/></g><use transform="matrix(0.03703703703703704,0,0,0.03703703703703704,0,0)" xlink:href="#am" id="o"/><path d="M30-248c87 1 191-15 191 75 0 78-77 80-158 76V0H30v-248zm33 125c57 0 124 11 124-50 0-59-68-47-124-48v98" id="aw"/><g id="p"><use transform="matrix(0.03703703703703704,0,0,0.03703703703703704,0,0)" xlink:href="#aw"/><use transform="matrix(0.03703703703703704,0,0,0.03703703703703704,8.88888888888889,0)" xlink:href="#ar"/><use transform="matrix(0.03703703703703704,0,0,0.03703703703703704,18.48148148148148,0)" xlink:href="#ag"/><use transform="matrix(0.03703703703703704,0,0,0.03703703703703704,28.851851851851855,0)" xlink:href="#aq"/><use transform="matrix(0.03703703703703704,0,0,0.03703703703703704,36.70370370370371,0)" xlink:href="#ag"/></g><g id="q"><use transform="matrix(0.03703703703703704,0,0,0.03703703703703704,0,0)" xlink:href="#ag"/><use transform="matrix(0.03703703703703704,0,0,0.03703703703703704,10.370370370370372,0)" xlink:href="#ah"/></g><path d="M47-170H22l-4-78h33" id="ax"/><g id="r"><use transform="matrix(0.03703703703703704,0,0,0.03703703703703704,0,0)" xlink:href="#ao"/><use transform="matrix(0.03703703703703704,0,0,0.03703703703703704,8.88888888888889,0)" xlink:href="#ai"/><use transform="matrix(0.03703703703703704,0,0,0.03703703703703704,12.592592592592593,0)" xlink:href="#ag"/><use transform="matrix(0.03703703703703704,0,0,0.03703703703703704,22.962962962962965,0)" xlink:href="#an"/><use transform="matrix(0.03703703703703704,0,0,0.03703703703703704,30.370370370370374,0)" xlink:href="#am"/><use transform="matrix(0.03703703703703704,0,0,0.03703703703703704,38.25925925925927,0)" xlink:href="#aq"/><use transform="matrix(0.03703703703703704,0,0,0.03703703703703704,46.111111111111114,0)" xlink:href="#ag"/><use transform="matrix(0.03703703703703704,0,0,0.03703703703703704,56.481481481481495,0)" xlink:href="#aj"/><use transform="matrix(0.03703703703703704,0,0,0.03703703703703704,66.07407407407409,0)" xlink:href="#ax"/><use transform="matrix(0.03703703703703704,0,0,0.03703703703703704,68.59259259259261,0)" xlink:href="#ap"/></g><g id="s"><use transform="matrix(0.03703703703703704,0,0,0.03703703703703704,0,0)" xlink:href="#af"/><use transform="matrix(0.03703703703703704,0,0,0.03703703703703704,9.592592592592593,0)" xlink:href="#am"/><use transform="matrix(0.03703703703703704,0,0,0.03703703703703704,18.48148148148148,0)" xlink:href="#aj"/><use transform="matrix(0.03703703703703704,0,0,0.03703703703703704,28.074074074074076,0)" xlink:href="#ax"/><use transform="matrix(0.03703703703703704,0,0,0.03703703703703704,30.592592592592595,0)" xlink:href="#ap"/></g><g id="t"><use transform="matrix(0.03703703703703704,0,0,0.03703703703703704,0,0)" xlink:href="#aw"/><use transform="matrix(0.03703703703703704,0,0,0.03703703703703704,8.88888888888889,0)" xlink:href="#an"/><use transform="matrix(0.03703703703703704,0,0,0.03703703703703704,16.296296296296298,0)" xlink:href="#am"/><use transform="matrix(0.03703703703703704,0,0,0.03703703703703704,24.185185185185187,0)" xlink:href="#aq"/><use transform="matrix(0.03703703703703704,0,0,0.03703703703703704,32.2962962962963,0)" xlink:href="#al"/></g><g id="u"><use transform="matrix(0.04320987654320988,0,0,0.04320987654320988,0,0)" xlink:href="#aj"/><use transform="matrix(0.04320987654320988,0,0,0.04320987654320988,11.19135802469136,0)" xlink:href="#al"/><use transform="matrix(0.04320987654320988,0,0,0.04320987654320988,21.56172839506173,0)" xlink:href="#at"/><use transform="matrix(0.04320987654320988,0,0,0.04320987654320988,33.660493827160494,0)" xlink:href="#ai"/><use transform="matrix(0.04320987654320988,0,0,0.04320987654320988,37.98148148148148,0)" xlink:href="#ap"/><use transform="matrix(0.04320987654320988,0,0,0.04320987654320988,48.351851851851855,0)" xlink:href="#aq"/><use transform="matrix(0.04320987654320988,0,0,0.04320987654320988,57.814814814814824,0)" xlink:href="#al"/><use transform="matrix(0.04320987654320988,0,0,0.04320987654320988,68.18518518518519,0)" xlink:href="#aj"/></g><g id="v"><use transform="matrix(0.04320987654320988,0,0,0.04320987654320988,0,0)" xlink:href="#am"/><use transform="matrix(0.04320987654320988,0,0,0.04320987654320988,10.370370370370372,0)" xlink:href="#ap"/></g><g id="w"><use transform="matrix(0.04320987654320988,0,0,0.04320987654320988,0,0)" xlink:href="#am"/><use transform="matrix(0.04320987654320988,0,0,0.04320987654320988,10.370370370370372,0)" xlink:href="#as"/></g><path d="M232-93c-1 65-40 97-104 97C67 4 28-28 28-90v-158h33c8 89-33 224 67 224 102 0 64-133 71-224h33v155" id="ay"/><g id="x"><use transform="matrix(0.04320987654320988,0,0,0.04320987654320988,0,0)" xlink:href="#am"/><use transform="matrix(0.04320987654320988,0,0,0.04320987654320988,10.370370370370372,0)" xlink:href="#ay"/><use transform="matrix(0.04320987654320988,0,0,0.04320987654320988,21.56172839506173,0)" xlink:href="#aq"/><use transform="matrix(0.04320987654320988,0,0,0.04320987654320988,31.024691358024693,0)" xlink:href="#ar"/><use transform="matrix(0.04320987654320988,0,0,0.04320987654320988,42.21604938271606,0)" xlink:href="#ag"/><use transform="matrix(0.04320987654320988,0,0,0.04320987654320988,54.314814814814824,0)" xlink:href="#aj"/><use transform="matrix(0.04320987654320988,0,0,0.04320987654320988,65.50617283950618,0)" xlink:href="#ai"/><use transform="matrix(0.04320987654320988,0,0,0.04320987654320988,69.82716049382717,0)" xlink:href="#aq"/><use transform="matrix(0.04320987654320988,0,0,0.04320987654320988,79.29012345679013,0)" xlink:href="#ai"/><use transform="matrix(0.04320987654320988,0,0,0.04320987654320988,83.61111111111111,0)" xlink:href="#al"/><use transform="matrix(0.04320987654320988,0,0,0.04320987654320988,93.98148148148147,0)" xlink:href="#ap"/></g><g id="y"><use transform="matrix(0.04320987654320988,0,0,0.04320987654320988,0,0)" xlink:href="#ak"/><use transform="matrix(0.04320987654320988,0,0,0.04320987654320988,12.919753086419755,0)" xlink:href="#ai"/><use transform="matrix(0.04320987654320988,0,0,0.04320987654320988,17.240740740740744,0)" xlink:href="#as"/><use transform="matrix(0.04320987654320988,0,0,0.04320987654320988,28.4320987654321,0)" xlink:href="#al"/></g><g id="z"><use transform="matrix(0.04320987654320988,0,0,0.04320987654320988,0,0)" xlink:href="#aq"/><use transform="matrix(0.04320987654320988,0,0,0.04320987654320988,9.462962962962964,0)" xlink:href="#ar"/><use transform="matrix(0.04320987654320988,0,0,0.04320987654320988,20.654320987654323,0)" xlink:href="#al"/></g><path d="M30-248c118-7 216 8 213 122C240-48 200 0 122 0H30v-248zM63-27c89 8 146-16 146-99s-60-101-146-95v194" id="az"/><g id="A"><use transform="matrix(0.04320987654320988,0,0,0.04320987654320988,0,0)" xlink:href="#aj"/><use transform="matrix(0.04320987654320988,0,0,0.04320987654320988,11.19135802469136,0)" xlink:href="#al"/><use transform="matrix(0.04320987654320988,0,0,0.04320987654320988,21.56172839506173,0)" xlink:href="#af"/><use transform="matrix(0.04320987654320988,0,0,0.04320987654320988,32.75308641975309,0)" xlink:href="#al"/><use transform="matrix(0.04320987654320988,0,0,0.04320987654320988,43.12345679012346,0)" xlink:href="#ai"/><use transform="matrix(0.04320987654320988,0,0,0.04320987654320988,47.44444444444445,0)" xlink:href="#ao"/><use transform="matrix(0.04320987654320988,0,0,0.04320987654320988,57.814814814814824,0)" xlink:href="#al"/><use transform="matrix(0.04320987654320988,0,0,0.04320987654320988,68.18518518518519,0)" xlink:href="#az"/></g><g id="B"><use transform="matrix(0.04320987654320988,0,0,0.04320987654320988,0,0)" xlink:href="#ai"/><use transform="matrix(0.04320987654320988,0,0,0.04320987654320988,4.320987654320988,0)" xlink:href="#as"/><use transform="matrix(0.04320987654320988,0,0,0.04320987654320988,15.512345679012347,0)" xlink:href="#ah"/><use transform="matrix(0.04320987654320988,0,0,0.04320987654320988,24.97530864197531,0)" xlink:href="#ag"/><use transform="matrix(0.04320987654320988,0,0,0.04320987654320988,37.074074074074076,0)" xlink:href="#aj"/><use transform="matrix(0.04320987654320988,0,0,0.04320987654320988,48.26543209876544,0)" xlink:href="#ak"/><use transform="matrix(0.04320987654320988,0,0,0.04320987654320988,61.18518518518519,0)" xlink:href="#am"/><use transform="matrix(0.04320987654320988,0,0,0.04320987654320988,70.3888888888889,0)" xlink:href="#aq"/><use transform="matrix(0.04320987654320988,0,0,0.04320987654320988,79.85185185185186,0)" xlink:href="#ai"/><use transform="matrix(0.04320987654320988,0,0,0.04320987654320988,84.17283950617285,0)" xlink:href="#ag"/><use transform="matrix(0.04320987654320988,0,0,0.04320987654320988,96.27160493827162,0)" xlink:href="#as"/></g><g id="C"><use transform="matrix(0.04320987654320988,0,0,0.04320987654320988,0,0)" xlink:href="#ap"/><use transform="matrix(0.04320987654320988,0,0,0.04320987654320988,10.370370370370372,0)" xlink:href="#al"/><use transform="matrix(0.04320987654320988,0,0,0.04320987654320988,20.740740740740744,0)" xlink:href="#as"/><use transform="matrix(0.04320987654320988,0,0,0.04320987654320988,31.9320987654321,0)" xlink:href="#az"/></g><g id="D"><use transform="matrix(0.04320987654320988,0,0,0.04320987654320988,0,0)" xlink:href="#aq"/><use transform="matrix(0.04320987654320988,0,0,0.04320987654320988,9.462962962962964,0)" xlink:href="#ar"/><use transform="matrix(0.04320987654320988,0,0,0.04320987654320988,20.654320987654323,0)" xlink:href="#al"/></g><g id="E"><use transform="matrix(0.04320987654320988,0,0,0.04320987654320988,0,0)" xlink:href="#aq"/><use transform="matrix(0.04320987654320988,0,0,0.04320987654320988,8.296296296296298,0)" xlink:href="#am"/><use transform="matrix(0.04320987654320988,0,0,0.04320987654320988,18.66666666666667,0)" xlink:href="#av"/><use transform="matrix(0.04320987654320988,0,0,0.04320987654320988,29.037037037037045,0)" xlink:href="#al"/><use transform="matrix(0.04320987654320988,0,0,0.04320987654320988,39.40740740740742,0)" xlink:href="#as"/></g><g id="F"><use transform="matrix(0.04320987654320988,0,0,0.04320987654320988,0,0)" xlink:href="#aw"/><use transform="matrix(0.04320987654320988,0,0,0.04320987654320988,10.370370370370372,0)" xlink:href="#ar"/><use transform="matrix(0.04320987654320988,0,0,0.04320987654320988,21.56172839506173,0)" xlink:href="#ag"/><use transform="matrix(0.04320987654320988,0,0,0.04320987654320988,33.660493827160494,0)" xlink:href="#aq"/><use transform="matrix(0.04320987654320988,0,0,0.04320987654320988,42.82098765432099,0)" xlink:href="#ag"/></g><g id="G"><use transform="matrix(0.03703703703703704,0,0,0.03703703703703704,0,0)" xlink:href="#ap"/><use transform="matrix(0.03703703703703704,0,0,0.03703703703703704,8.88888888888889,0)" xlink:href="#al"/><use transform="matrix(0.03703703703703704,0,0,0.03703703703703704,17.77777777777778,0)" xlink:href="#al"/></g><g id="H"><use transform="matrix(0.03703703703703704,0,0,0.03703703703703704,0,0)" xlink:href="#ar"/><use transform="matrix(0.03703703703703704,0,0,0.03703703703703704,9.592592592592593,0)" xlink:href="#ai"/><use transform="matrix(0.03703703703703704,0,0,0.03703703703703704,13.296296296296298,0)" xlink:href="#at"/><use transform="matrix(0.03703703703703704,0,0,0.03703703703703704,23.66666666666667,0)" xlink:href="#ar"/><use transform="matrix(0.03703703703703704,0,0,0.03703703703703704,33.25925925925927,0)" xlink:href="#an"/><use transform="matrix(0.03703703703703704,0,0,0.03703703703703704,40.66666666666667,0)" xlink:href="#ai"/><use transform="matrix(0.03703703703703704,0,0,0.03703703703703704,44.370370370370374,0)" xlink:href="#at"/><use transform="matrix(0.03703703703703704,0,0,0.03703703703703704,54.74074074074075,0)" xlink:href="#ar"/><use transform="matrix(0.03703703703703704,0,0,0.03703703703703704,64.33333333333334,0)" xlink:href="#aq"/><use transform="matrix(0.03703703703703704,0,0,0.03703703703703704,72.44444444444446,0)" xlink:href="#al"/><use transform="matrix(0.03703703703703704,0,0,0.03703703703703704,81.33333333333334,0)" xlink:href="#az"/></g><g id="I"><use transform="matrix(0.03703703703703704,0,0,0.03703703703703704,0,0)" xlink:href="#am"/><use transform="matrix(0.03703703703703704,0,0,0.03703703703703704,8.88888888888889,0)" xlink:href="#aj"/><use transform="matrix(0.03703703703703704,0,0,0.03703703703703704,18.48148148148148,0)" xlink:href="#al"/><use transform="matrix(0.03703703703703704,0,0,0.03703703703703704,27.37037037037037,0)" xlink:href="#am"/></g><path d="M266 0h-40l-56-210L115 0H75L2-248h35L96-30l15-64 43-154h32l59 218 59-218h35" id="aA"/><g id="J"><use transform="matrix(0.03703703703703704,0,0,0.03703703703703704,0,0)" xlink:href="#aA"/><use transform="matrix(0.03703703703703704,0,0,0.03703703703703704,12.555555555555557,0)" xlink:href="#ai"/><use transform="matrix(0.03703703703703704,0,0,0.03703703703703704,16.25925925925926,0)" xlink:href="#aq"/><use transform="matrix(0.03703703703703704,0,0,0.03703703703703704,24.370370370370374,0)" xlink:href="#ar"/></g><g id="K"><use transform="matrix(0.03703703703703704,0,0,0.03703703703703704,0,0)" xlink:href="#ak"/><use transform="matrix(0.03703703703703704,0,0,0.03703703703703704,11.074074074074076,0)" xlink:href="#ag"/><use transform="matrix(0.03703703703703704,0,0,0.03703703703703704,21.44444444444445,0)" xlink:href="#ap"/><use transform="matrix(0.03703703703703704,0,0,0.03703703703703704,30.333333333333336,0)" xlink:href="#aq"/></g><path d="M140-251c81 0 123 46 123 126C263-53 228-8 163 1c7 30 30 48 69 40v23c-55 16-95-15-103-61C56-3 17-48 17-125c0-80 42-126 123-126zm0 227c63 0 89-41 89-101s-29-99-89-99c-61 0-89 39-89 99S79-25 140-24" id="aB"/><path d="M137-103V0h-34v-103L8-248h37l75 118 75-118h37" id="aC"/><g id="L"><use transform="matrix(0.03703703703703704,0,0,0.03703703703703704,0,0)" xlink:href="#ah"/><use transform="matrix(0.03703703703703704,0,0,0.03703703703703704,8.111111111111112,0)" xlink:href="#aj"/><use transform="matrix(0.03703703703703704,0,0,0.03703703703703704,17.703703703703706,0)" xlink:href="#al"/><use transform="matrix(0.03703703703703704,0,0,0.03703703703703704,26.592592592592595,0)" xlink:href="#aB"/><use transform="matrix(0.03703703703703704,0,0,0.03703703703703704,36.96296296296297,0)" xlink:href="#ay"/><use transform="matrix(0.03703703703703704,0,0,0.03703703703703704,46.555555555555564,0)" xlink:href="#al"/><use transform="matrix(0.03703703703703704,0,0,0.03703703703703704,55.44444444444446,0)" xlink:href="#as"/><use transform="matrix(0.03703703703703704,0,0,0.03703703703703704,65.03703703703705,0)" xlink:href="#af"/><use transform="matrix(0.03703703703703704,0,0,0.03703703703703704,74.62962962962965,0)" xlink:href="#aC"/></g><g id="M"><use transform="matrix(0.03703703703703704,0,0,0.03703703703703704,0,0)" xlink:href="#ag"/><use transform="matrix(0.03703703703703704,0,0,0.03703703703703704,10.370370370370372,0)" xlink:href="#ah"/></g><g id="N"><use transform="matrix(0.04320987654320988,0,0,0.04320987654320988,0,0)" xlink:href="#an"/><use transform="matrix(0.04320987654320988,0,0,0.04320987654320988,8.641975308641976,0)" xlink:href="#ag"/><use transform="matrix(0.04320987654320988,0,0,0.04320987654320988,20.74074074074074,0)" xlink:href="#at"/><use transform="matrix(0.04320987654320988,0,0,0.04320987654320988,32.839506172839506,0)" xlink:href="#ai"/><use transform="matrix(0.04320987654320988,0,0,0.04320987654320988,37.160493827160494,0)" xlink:href="#as"/></g><g id="O"><use transform="matrix(0.04320987654320988,0,0,0.04320987654320988,0,0)" xlink:href="#ap"/><use transform="matrix(0.04320987654320988,0,0,0.04320987654320988,10.370370370370372,0)" xlink:href="#al"/><use transform="matrix(0.04320987654320988,0,0,0.04320987654320988,20.740740740740744,0)" xlink:href="#al"/></g><g id="P"><use transform="matrix(0.04320987654320988,0,0,0.04320987654320988,0,0)" xlink:href="#ap"/><use transform="matrix(0.04320987654320988,0,0,0.04320987654320988,10.370370370370372,0)" xlink:href="#ag"/><use transform="matrix(0.04320987654320988,0,0,0.04320987654320988,22.46913580246914,0)" xlink:href="#ak"/><use transform="matrix(0.04320987654320988,0,0,0.04320987654320988,35.38888888888889,0)" xlink:href="#al"/></g><g id="Q"><use transform="matrix(0.04320987654320988,0,0,0.04320987654320988,0,0)" xlink:href="#ap"/><use transform="matrix(0.04320987654320988,0,0,0.04320987654320988,10.370370370370372,0)" xlink:href="#aq"/><use transform="matrix(0.04320987654320988,0,0,0.04320987654320988,18.66666666666667,0)" xlink:href="#am"/><use transform="matrix(0.04320987654320988,0,0,0.04320987654320988,27.870370370370374,0)" xlink:href="#aq"/><use transform="matrix(0.04320987654320988,0,0,0.04320987654320988,37.333333333333336,0)" xlink:href="#ai"/><use transform="matrix(0.04320987654320988,0,0,0.04320987654320988,41.65432098765432,0)" xlink:href="#ap"/><use transform="matrix(0.04320987654320988,0,0,0.04320987654320988,52.0246913580247,0)" xlink:href="#aq"/><use transform="matrix(0.04320987654320988,0,0,0.04320987654320988,61.48765432098766,0)" xlink:href="#ai"/><use transform="matrix(0.04320987654320988,0,0,0.04320987654320988,65.80864197530865,0)" xlink:href="#af"/></g><g id="R"><use transform="matrix(0.04320987654320988,0,0,0.04320987654320988,0,0)" xlink:href="#af"/><use transform="matrix(0.04320987654320988,0,0,0.04320987654320988,11.19135802469136,0)" xlink:href="#ag"/><use transform="matrix(0.04320987654320988,0,0,0.04320987654320988,23.290123456790127,0)" xlink:href="#as"/><use transform="matrix(0.04320987654320988,0,0,0.04320987654320988,34.48148148148149,0)" xlink:href="#ah"/><use transform="matrix(0.04320987654320988,0,0,0.04320987654320988,43.94444444444445,0)" xlink:href="#ai"/><use transform="matrix(0.04320987654320988,0,0,0.04320987654320988,48.26543209876544,0)" xlink:href="#aj"/><use transform="matrix(0.04320987654320988,0,0,0.04320987654320988,59.4567901234568,0)" xlink:href="#ak"/></g><g id="S"><use transform="matrix(0.04320987654320988,0,0,0.04320987654320988,0,0)" xlink:href="#ag"/><use transform="matrix(0.04320987654320988,0,0,0.04320987654320988,12.098765432098766,0)" xlink:href="#aj"/></g><path d="M153-248C145-148 188 4 80 4 36 3 13-21 6-62l32-5c4 25 16 42 43 43 27 0 39-20 39-49v-147H72v-28h81" id="aD"/><g id="T"><use transform="matrix(0.04320987654320988,0,0,0.04320987654320988,0,0)" xlink:href="#aj"/><use transform="matrix(0.04320987654320988,0,0,0.04320987654320988,11.19135802469136,0)" xlink:href="#al"/><use transform="matrix(0.04320987654320988,0,0,0.04320987654320988,21.56172839506173,0)" xlink:href="#aD"/><use transform="matrix(0.04320987654320988,0,0,0.04320987654320988,29.33950617283951,0)" xlink:href="#al"/><use transform="matrix(0.04320987654320988,0,0,0.04320987654320988,39.70987654320988,0)" xlink:href="#af"/><use transform="matrix(0.04320987654320988,0,0,0.04320987654320988,50.90123456790124,0)" xlink:href="#aq"/></g><g id="U"><use transform="matrix(0.04320987654320988,0,0,0.04320987654320988,0,0)" xlink:href="#ah"/><use transform="matrix(0.04320987654320988,0,0,0.04320987654320988,9.462962962962964,0)" xlink:href="#ag"/><use transform="matrix(0.04320987654320988,0,0,0.04320987654320988,21.561728395061728,0)" xlink:href="#aj"/></g><g id="V"><use transform="matrix(0.04320987654320988,0,0,0.04320987654320988,0,0)" xlink:href="#at"/><use transform="matrix(0.04320987654320988,0,0,0.04320987654320988,12.098765432098766,0)" xlink:href="#al"/><use transform="matrix(0.04320987654320988,0,0,0.04320987654320988,22.46913580246914,0)" xlink:href="#as"/><use transform="matrix(0.04320987654320988,0,0,0.04320987654320988,33.6604938271605,0)" xlink:href="#al"/><use transform="matrix(0.04320987654320988,0,0,0.04320987654320988,44.030864197530875,0)" xlink:href="#aj"/><use transform="matrix(0.04320987654320988,0,0,0.04320987654320988,55.222222222222236,0)" xlink:href="#am"/><use transform="matrix(0.04320987654320988,0,0,0.04320987654320988,64.42592592592594,0)" xlink:href="#aq"/><use transform="matrix(0.04320987654320988,0,0,0.04320987654320988,73.8888888888889,0)" xlink:href="#ai"/><use transform="matrix(0.04320987654320988,0,0,0.04320987654320988,78.20987654320989,0)" xlink:href="#as"/><use transform="matrix(0.04320987654320988,0,0,0.04320987654320988,89.40123456790124,0)" xlink:href="#at"/></g><use transform="matrix(0.04320987654320988,0,0,0.04320987654320988,0,0)" xlink:href="#am" id="W"/><g id="X"><use transform="matrix(0.04320987654320988,0,0,0.04320987654320988,0,0)" xlink:href="#aq"/><use transform="matrix(0.04320987654320988,0,0,0.04320987654320988,9.462962962962964,0)" xlink:href="#ai"/><use transform="matrix(0.04320987654320988,0,0,0.04320987654320988,13.783950617283953,0)" xlink:href="#af"/><use transform="matrix(0.04320987654320988,0,0,0.04320987654320988,24.97530864197531,0)" xlink:href="#av"/><use transform="matrix(0.04320987654320988,0,0,0.04320987654320988,35.345679012345684,0)" xlink:href="#al"/><use transform="matrix(0.04320987654320988,0,0,0.04320987654320988,45.71604938271605,0)" xlink:href="#aq"/></g><path fill="#333" d="M190-63c-7 42-38 67-86 67-59 0-84-38-90-98-12-110 154-137 174-36l-49 2c-2-19-15-32-35-32-30 0-35 28-38 64-6 74 65 87 74 30" id="aE"/><path fill="#333" d="M25-224v-37h50v37H25zM25 0v-190h50V0H25" id="aF"/><path fill="#333" d="M115-3C79 11 28 4 28-45v-112H4v-33h27l15-45h31v45h36v33H77v99c-1 23 16 31 38 25v30" id="aG"/><path fill="#333" d="M12 0v-35l95-120H19v-35h142v35L67-36h103V0H12" id="aH"/><path fill="#333" d="M185-48c-13 30-37 53-82 52C43 2 14-33 14-96s30-98 90-98c62 0 83 45 84 108H66c0 31 8 55 39 56 18 0 30-7 34-22zm-45-69c5-46-57-63-70-21-2 6-4 13-4 21h74" id="aI"/><path fill="#333" d="M135-194c87-1 58 113 63 194h-50c-7-57 23-157-34-157-59 0-34 97-39 157H25l-1-190h47c2 12-1 28 3 38 12-26 28-41 61-42" id="aJ"/><g id="Y"><use transform="matrix(0.04320987654320988,0,0,0.04320987654320988,0,0)" xlink:href="#aE"/><use transform="matrix(0.04320987654320988,0,0,0.04320987654320988,8.641975308641976,0)" xlink:href="#aF"/><use transform="matrix(0.04320987654320988,0,0,0.04320987654320988,12.962962962962964,0)" xlink:href="#aG"/><use transform="matrix(0.04320987654320988,0,0,0.04320987654320988,18.10493827160494,0)" xlink:href="#aF"/><use transform="matrix(0.04320987654320988,0,0,0.04320987654320988,22.425925925925927,0)" xlink:href="#aH"/><use transform="matrix(0.04320987654320988,0,0,0.04320987654320988,30.203703703703706,0)" xlink:href="#aI"/><use transform="matrix(0.04320987654320988,0,0,0.04320987654320988,38.845679012345684,0)" xlink:href="#aJ"/></g><path fill="#333" d="M133-34C117-15 103 5 69 4 32 3 11-16 11-54c-1-60 55-63 116-61 1-26-3-47-28-47-18 1-26 9-28 27l-52-2c7-38 36-58 82-57s74 22 75 68l1 82c-1 14 12 18 25 15v27c-30 8-71 5-69-32zm-48 3c29 0 43-24 42-57-32 0-66-3-65 30 0 17 8 27 23 27" id="aK"/><path fill="#333" d="M85 4C-2 5 27-109 22-190h50c7 57-23 150 33 157 60-5 35-97 40-157h50l1 190h-47c-2-12 1-28-3-38-12 25-28 42-61 42" id="aL"/><path fill="#333" d="M114-157C55-157 80-60 75 0H25v-261h50l-1 109c12-26 28-41 61-42 86-1 58 113 63 194h-50c-7-57 23-157-34-157" id="aM"/><path fill="#333" d="M110-194c64 0 96 36 96 99 0 64-35 99-97 99-61 0-95-36-95-99 0-62 34-99 96-99zm-1 164c35 0 45-28 45-65 0-40-10-65-43-65-34 0-45 26-45 65 0 36 10 65 43 65" id="aN"/><path fill="#333" d="M135-150c-39-12-60 13-60 57V0H25l-1-190h47c2 13-1 29 3 40 6-28 27-53 61-41v41" id="aO"/><path fill="#333" d="M137-138c1-29-70-34-71-4 15 46 118 7 119 86 1 83-164 76-172 9l43-7c4 19 20 25 44 25 33 8 57-30 24-41C81-84 22-81 20-136c-2-80 154-74 161-7" id="aP"/><g id="Z"><use transform="matrix(0.04320987654320988,0,0,0.04320987654320988,0,0)" xlink:href="#aK"/><use transform="matrix(0.04320987654320988,0,0,0.04320987654320988,8.641975308641976,0)" xlink:href="#aL"/><use transform="matrix(0.04320987654320988,0,0,0.04320987654320988,18.10493827160494,0)" xlink:href="#aG"/><use transform="matrix(0.04320987654320988,0,0,0.04320987654320988,23.246913580246915,0)" xlink:href="#aM"/><use transform="matrix(0.04320987654320988,0,0,0.04320987654320988,32.70987654320988,0)" xlink:href="#aN"/><use transform="matrix(0.04320987654320988,0,0,0.04320987654320988,42.17283950617284,0)" xlink:href="#aO"/><use transform="matrix(0.04320987654320988,0,0,0.04320987654320988,48.22222222222223,0)" xlink:href="#aF"/><use transform="matrix(0.04320987654320988,0,0,0.04320987654320988,52.543209876543216,0)" xlink:href="#aG"/><use transform="matrix(0.04320987654320988,0,0,0.04320987654320988,57.68518518518519,0)" xlink:href="#aF"/><use transform="matrix(0.04320987654320988,0,0,0.04320987654320988,62.00617283950618,0)" xlink:href="#aI"/><use transform="matrix(0.04320987654320988,0,0,0.04320987654320988,70.64814814814815,0)" xlink:href="#aP"/></g><g id="aa"><use transform="matrix(0.04320987654320988,0,0,0.04320987654320988,0,0)" xlink:href="#ai"/><use transform="matrix(0.04320987654320988,0,0,0.04320987654320988,4.320987654320988,0)" xlink:href="#as"/><use transform="matrix(0.04320987654320988,0,0,0.04320987654320988,15.512345679012347,0)" xlink:href="#af"/><use transform="matrix(0.04320987654320988,0,0,0.04320987654320988,26.703703703703713,0)" xlink:href="#an"/><use transform="matrix(0.04320987654320988,0,0,0.04320987654320988,35.345679012345684,0)" xlink:href="#ay"/><use transform="matrix(0.04320987654320988,0,0,0.04320987654320988,46.537037037037045,0)" xlink:href="#az"/><use transform="matrix(0.04320987654320988,0,0,0.04320987654320988,57.72839506172841,0)" xlink:href="#al"/><use transform="matrix(0.04320987654320988,0,0,0.04320987654320988,68.09876543209877,0)" xlink:href="#az"/></g><path d="M195 0l-74-108L45 0H8l94-129-87-119h37l69 98 67-98h37l-84 118L233 0h-38" id="aQ"/><g id="ab"><use transform="matrix(0.04320987654320988,0,0,0.04320987654320988,0,0)" xlink:href="#al"/><use transform="matrix(0.04320987654320988,0,0,0.04320987654320988,10.370370370370372,0)" xlink:href="#aQ"/><use transform="matrix(0.04320987654320988,0,0,0.04320987654320988,20.740740740740744,0)" xlink:href="#aq"/><use transform="matrix(0.04320987654320988,0,0,0.04320987654320988,30.203703703703713,0)" xlink:href="#al"/><use transform="matrix(0.04320987654320988,0,0,0.04320987654320988,40.57407407407408,0)" xlink:href="#as"/><use transform="matrix(0.04320987654320988,0,0,0.04320987654320988,51.765432098765444,0)" xlink:href="#az"/><use transform="matrix(0.04320987654320988,0,0,0.04320987654320988,62.956790123456805,0)" xlink:href="#al"/><use transform="matrix(0.04320987654320988,0,0,0.04320987654320988,73.32716049382718,0)" xlink:href="#az"/></g><g id="ac"><use transform="matrix(0.05,0,0,0.05,0,0)" xlink:href="#aj"/><use transform="matrix(0.05,0,0,0.05,12.950000000000001,0)" xlink:href="#al"/><use transform="matrix(0.05,0,0,0.05,24.950000000000003,0)" xlink:href="#aw"/><use transform="matrix(0.05,0,0,0.05,36.95,0)" xlink:href="#ag"/><use transform="matrix(0.05,0,0,0.05,50.95,0)" xlink:href="#aj"/><use transform="matrix(0.05,0,0,0.05,63.550000000000004,0)" xlink:href="#aq"/></g><use transform="matrix(0.05,0,0,0.05,0,0)" xlink:href="#am" id="ad"/><g id="ae"><use transform="matrix(0.05,0,0,0.05,0,0)" xlink:href="#ao"/><use transform="matrix(0.05,0,0,0.05,12,0)" xlink:href="#ai"/><use transform="matrix(0.05,0,0,0.05,17,0)" xlink:href="#ag"/><use transform="matrix(0.05,0,0,0.05,31,0)" xlink:href="#an"/><use transform="matrix(0.05,0,0,0.05,41,0)" xlink:href="#am"/><use transform="matrix(0.05,0,0,0.05,51.650000000000006,0)" xlink:href="#aq"/><use transform="matrix(0.05,0,0,0.05,62.6,0)" xlink:href="#ai"/><use transform="matrix(0.05,0,0,0.05,67.6,0)" xlink:href="#ag"/><use transform="matrix(0.05,0,0,0.05,81.6,0)" xlink:href="#as"/></g></defs></g></svg>